<?xml version="1.0" encoding="UTF-8"?>
<svg xmlns="http://www.w3.org/2000/svg" viewBox="0 0 425 204" width="425" height="204">
<path d="M0.08 0.52C12.64 0.62 25.19 0.71 37.75 0.8C37.92 26.78 38.08 52.75 38.25 78.73C60.08 78.74 81.92 78.76 103.75 78.77C103.92 52.78 104.08 26.8 104.25 0.81C106.64 -0.25 110.12 0.34 112.75 0.34C119.08 0.34 125.42 0.34 131.75 0.34C153.92 0.34 176.08 0.34 198.25 0.34C205.08 0.34 211.92 0.34 218.75 0.34C221.58 0.34 225.4 -0.39 227.78 1.25C227.77 40.08 227.76 78.92 227.75 117.75C203.92 117.86 180.08 117.96 156.25 118.07C156.23 105.13 156.2 92.19 156.18 79.25C168.07 79.08 179.95 78.92 191.84 78.75C191.84 64.58 191.84 50.42 191.83 36.25C174.36 36.25 156.88 36.25 139.41 36.25C139.19 75.24 138.97 114.24 138.75 153.23C127.25 153.23 115.75 153.22 104.25 153.22C104.06 141.73 103.88 130.24 103.69 118.75C69.16 118.52 34.62 118.3 0.08 118.07C0.08 78.89 0.08 39.7 0.08 0.52ZM365.49 1.14C365.49 40.21 365.49 79.28 365.49 118.35C341.58 118.35 317.67 118.35 293.76 118.35C293.76 105.24 293.76 92.13 293.76 79.02C305.82 79.02 317.87 79.02 329.93 79.02C329.93 64.69 329.93 50.36 329.93 36.04C312.29 36.04 294.65 36.04 277 36.04C277 75.19 277 114.34 277 153.49C265.27 153.49 253.54 153.49 241.81 153.49C241.81 102.58 241.81 51.66 241.81 0.75C248.49 -1.02 263.65 0.34 271.25 0.34C291.92 0.34 312.58 0.34 333.25 0.34C340.75 0.34 348.25 0.34 355.75 0.34C358.82 0.34 362.78 -0.37 365.49 1.14ZM424.92 1C424.92 39.99 424.92 78.98 424.92 117.97C411.4 117.9 397.88 117.82 384.36 117.75C384.34 78.92 384.33 40.08 384.31 1.25C386.89 -0.58 391.65 0.34 394.75 0.34C402.09 0.34 418.75 -1.04 424.92 1Z" fill="#043751" fill-rule="evenodd" stroke="#043751" stroke-width="0.25" stroke-linejoin="round"/>
<path d="M121.53 174.99C119.55 174.99 117.57 174.99 115.59 174.99C113.7 169.38 106.57 168.98 106.27 174.25C109.65 179.17 128.86 177.98 121.69 191.42C116.84 200.49 97.39 197.42 99.25 185.89C101.08 185.89 102.92 185.89 104.75 185.89C106.03 187.78 106.41 189.98 108.93 190.75C111.49 191.54 116.53 191.03 116.19 187.33C115.9 184.11 110.61 183.56 108.2 182.95C101.87 181.35 97.67 175.9 101.28 169.56C105.86 161.53 122.65 164.78 121.53 174.99ZM0.08 166.96C0.08 166.77 0.08 166.58 0.08 166.39C2.59 166.34 5.09 166.3 7.6 166.25C8.67 168.25 12.36 176.35 14 176.75C15.88 173.25 17.76 169.75 19.63 166.25C21.93 166.25 24.23 166.25 26.52 166.25C24.73 172.61 18.98 177.5 17.17 183.79C16.08 187.58 18.39 192.45 16.25 195.82C14.29 195.8 12.32 195.77 10.36 195.75C9.42 192.05 10.62 188.01 9.93 184.25C9.48 181.79 1.92 168.19 0.08 166.96ZM245.97 165.97C245.97 167.65 245.97 169.32 245.97 170.99C243.99 170.99 242.01 170.99 240.04 170.99C240.04 169.32 240.04 167.65 240.04 165.97C242.01 165.97 243.99 165.97 245.97 165.97ZM291.96 185.49C291.96 188.98 291.96 192.48 291.96 195.97C289.69 195.97 287.43 195.97 285.16 195.97C285.16 186.07 285.16 176.16 285.16 166.25C289.9 165.29 299.44 164.53 303.64 167.16C309.01 170.52 309.57 180.23 303.97 183.7C300.26 186 296 184.73 291.96 185.49ZM132.75 167.42C133.04 169.59 133.33 171.76 133.62 173.93C134.85 173.93 136.08 173.93 137.31 173.93C137.31 175.33 137.31 176.72 137.31 178.12C136.18 178.12 135.05 178.12 133.93 178.12C133 179.67 132.45 189.49 134.11 190.6C134.88 191.12 136.42 191.05 137.34 191.25C137.34 192.75 137.34 194.25 137.34 195.75C123.07 199.03 129.11 186.58 127.25 178.59C126.17 178.31 125.1 178.03 124.02 177.75C124.02 176.47 124.02 175.18 124.02 173.9C125.1 173.9 126.17 173.9 127.25 173.9C127.51 171.74 127.76 169.58 128.02 167.42C129.6 167.42 131.17 167.42 132.75 167.42ZM186.05 167.46C186.05 169.62 186.05 171.77 186.05 173.92C187.39 173.92 188.74 173.92 190.09 173.92C190.09 175.2 190.09 176.47 190.09 177.75C188.76 178 187.43 178.26 186.09 178.51C186.09 182.39 186.09 186.28 186.09 190.16C187.43 190.52 188.77 190.89 190.11 191.25C190.11 192.75 190.11 194.25 190.11 195.75C176.28 199.32 180.9 186.19 179.75 178.13C178.79 178.13 177.83 178.13 176.87 178.13C176.87 176.74 176.87 175.34 176.87 173.94C177.91 173.94 178.96 173.94 180 173.94C180 171.78 180 169.62 180 167.46C182.01 167.46 184.03 167.46 186.05 167.46ZM353.25 167.38C354.89 167.38 356.54 167.38 358.18 167.38C358.18 169.54 358.18 171.71 358.18 173.87C359.59 173.87 361.01 173.87 362.42 173.87C362.42 175.29 362.42 176.7 362.42 178.12C361.2 178.12 359.97 178.12 358.75 178.12C357.41 181.77 357.77 187.36 359.26 190.94C360.31 190.94 361.37 190.94 362.43 190.94C362.43 192.55 362.43 194.15 362.43 195.75C347.66 198.96 354.73 186.03 352.25 178.14C351.18 178.14 350.1 178.14 349.03 178.14C349.03 176.74 349.03 175.34 349.03 173.94C350.07 173.94 351.11 173.94 352.15 173.94C352.52 171.75 352.88 169.57 353.25 167.38ZM292.02 179.57C295.6 180.22 301.07 180.55 301.26 175.75C301.3 174.64 301.22 173.26 300.31 172.47C298.2 170.66 294.53 170.99 292.02 171.25C292.02 174.02 292.02 176.8 292.02 179.57ZM33.72 173.55C48.33 170.91 50.39 195.36 35.75 196.62C22.75 197.73 20.2 175.99 33.72 173.55ZM85.75 173.47C87.14 175.04 86.88 176.77 86.57 178.75C84.87 179.44 82.67 179.33 81.08 180.35C77.9 182.36 79.41 192.51 78.75 195.97C76.85 195.97 74.95 195.97 73.05 195.97C73.05 188.73 73.05 181.49 73.05 174.25C75.66 173.74 78.79 172.97 79 176.25C81.49 175.64 82.62 173.37 85.75 173.47ZM152.75 173.57C153.96 175.18 153.8 176.84 153.49 178.75C151.81 179.74 149.82 179.15 148.1 180.38C144 183.3 146.79 191.81 145.75 195.98C143.83 195.98 141.91 195.98 139.98 195.98C139.98 188.73 139.98 181.49 139.98 174.25C142.64 173.76 145.77 172.92 146 176.25C148.62 175.36 149.5 173.17 152.75 173.57ZM174.42 195.75C171.52 196.26 170.34 195.75 168 194.75C160.99 198.37 150.29 194.42 156.19 185.91C158.73 182.24 164.12 183.35 167.77 181.75C167.77 180.63 167.77 179.52 167.77 178.4C164.42 177.64 162.85 177.92 161.4 180.99C159.58 180.99 157.76 180.99 155.94 180.99C155.68 173.13 167.59 170.75 172.64 175.61C174.83 177.71 174.94 192.45 174.42 195.75ZM211.75 186.55C207.32 186.55 202.88 186.55 198.45 186.55C198.08 187.98 198.18 188.93 199.15 190.13C202.14 193.83 204.53 189.78 207.25 189.01C208.67 188.61 210.22 188.89 211.59 189.25C210.6 195.44 203.44 198.03 197.96 195.75C192.85 193.62 190.73 186.35 192.18 181.35C196.04 168.1 215.04 172.87 211.75 186.55ZM229.09 203.92C226.52 203.92 223.96 203.92 221.39 203.92C219.17 201.7 215.3 201.05 216.25 196.97C217.92 196.94 219.58 196.92 221.25 196.9C226.25 202.04 231.76 198.19 229.29 193.25C214.56 204.76 208.36 171.26 225.25 173.62C227 173.87 227.86 174.57 229.25 175.53C230.76 173.55 232.58 173.59 235.05 174.25C236.28 178.58 236.36 194.39 234.78 198.6C233.65 201.61 231.08 201.98 229.09 203.92ZM269.75 181.98C267.9 181.98 266.04 181.98 264.19 181.98C263.52 178.9 259.95 176.64 257.45 179.68C255.79 181.71 255.54 185.68 256.21 188.11C257.01 191.06 260.73 192.53 263.17 190.41C264.06 189.64 264.24 188.18 264.75 187.15C266.42 187.15 268.08 187.15 269.75 187.15C271.59 198.78 251.61 199.87 249.99 187.76C249.32 182.74 251 176.04 256.32 174.14C262.2 172.05 270.13 174.91 269.75 181.98ZM329.95 195.75C327.12 196.48 325.55 195.83 323.23 194.75C318.33 197.17 310.14 197.33 310.28 189.75C310.44 180.98 320.57 185.54 323.75 180.5C323.42 179.7 323.08 178.9 322.75 178.1C321.23 178.1 319.72 178.1 318.2 178.1C317.75 179.07 317.29 180.04 316.83 181.01C314.93 181.01 313.03 181.01 311.13 181.01C310.56 173.17 322.98 171.18 327.86 175.37C330.16 177.34 330.19 192.27 329.95 195.75ZM346.78 173.75C347.75 175.46 347.44 177.48 346.75 179.19C337.28 179.38 340.9 189.56 339.75 195.97C337.81 195.97 335.87 195.97 333.93 195.97C333.93 188.67 333.93 181.38 333.93 174.09C336.57 173.82 339.26 173.12 340.25 176C342.56 174.62 343.88 173.23 346.78 173.75ZM384.19 195.98C382.42 195.98 380.65 195.98 378.88 195.98C377.87 192.37 380.47 178.71 375.25 178.56C369.03 178.37 371.77 192.12 370.75 195.97C368.92 195.97 367.09 195.97 365.26 195.97C365.26 188.73 365.26 181.49 365.26 174.25C368.72 173.64 369.58 173.28 371.35 175.75C385.05 166.3 387.31 187.43 384.19 195.98ZM407.75 186.56C403.31 186.56 398.87 186.56 394.43 186.56C393.65 190.52 397.52 192.69 401.1 190.8C402 190.32 402.21 189.28 403.27 188.99C404.73 188.59 406.33 188.91 407.74 189.25C403.39 203.34 384.06 195.28 388.18 181.35C392.01 168.42 411 173.32 407.75 186.56ZM424.92 174.83C424.92 176.06 424.92 177.29 424.92 178.52C423.28 179.56 421.16 179.19 419.59 180.36C415.65 183.28 418.22 191.72 417.18 195.75C415.47 195.75 413.75 195.75 412.03 195.75C412.02 188.58 412 181.42 411.99 174.25C413.58 174.18 415.16 174.12 416.75 174.05C417.08 174.79 417.42 175.53 417.75 176.28C419.59 174.82 420.94 173.95 423.25 173.43C423.81 173.9 424.36 174.36 424.92 174.83ZM55.33 173.99C55.68 179.41 56.02 184.83 56.37 190.25C58.05 191.38 59.35 191.18 61.28 190.75C64.5 186.31 62.47 179.2 63.08 174C65 174 66.93 174 68.86 174C68.86 181.25 68.86 188.5 68.86 195.75C66.45 196.19 63.72 196.84 62.75 194.22C48.47 203.02 47.39 183.28 49.8 173.99C51.64 173.99 53.49 173.99 55.33 173.99ZM246.03 173.95C246.03 181.3 246.03 188.64 246.03 195.98C244.02 195.98 242 195.98 239.98 195.98C239.98 188.64 239.98 181.3 239.98 173.95C242 173.95 244.02 173.95 246.03 173.95ZM34.87 178.23C29.13 179.12 29.12 191.39 35.25 191.57C42.03 191.78 41.39 177.22 34.87 178.23ZM205.85 182.12C205.57 177.03 198.69 177.26 198.16 182.12C200.73 182.12 203.29 182.12 205.85 182.12ZM224.87 178.24C219.48 179.03 219.58 190.73 225.66 190.21C231.75 189.69 230.87 177.36 224.87 178.24ZM401.83 182.12C401.46 177.07 394.69 177.2 394.16 182.12C396.71 182.12 399.27 182.12 401.83 182.12ZM167.78 186.25C165.56 186.9 163.35 187.55 161.13 188.19C161.13 189.07 161.13 189.95 161.13 190.83C165.28 194.19 168.42 190.56 167.78 186.25ZM323.75 186.57C321.4 185.42 317.27 186.83 316.13 189.25C316.92 194.69 323.69 191.99 323.75 186.57Z" fill="#bc4649" fill-rule="evenodd" stroke="#bc4649" stroke-width="0.25" stroke-linejoin="round"/>
</svg>